<svg xmlns="http://www.w3.org/2000/svg" viewBox="0 0 320 660" width="320" height="660" role="img" aria-label="Linkora Notifications screen mockup">
<title>Linkora — Notifications (mockup)</title>
<style>
text{font-family:'Segoe UI',-apple-system,Roboto,Helvetica,Arial,sans-serif}
.t9{font-size:9px}.t10{font-size:10px}.t11{font-size:11px}.t12{font-size:12px}.t13{font-size:13px}.t15{font-size:15px}.t22{font-size:22px}
.b{font-weight:700}.b8{font-weight:800}.sb{font-weight:600}
.mu{fill:#5E5E5C}.tx{fill:#1D1D1B}.pri{fill:#0A66C2}
</style>
<rect x="0.5" y="0.5" width="319" height="659" rx="22" fill="#F4F2EE" stroke="#D9D6D1"/>
<text x="18" y="24" class="t10 mu sb">9:41</text>
<text x="302" y="24" class="t10 mu" text-anchor="end">▮▮▮ ⌁ ▰</text>

<path d="M1 34 h318 v46 h-318 z" fill="#fff"/>
<line x1="1" y1="80" x2="319" y2="80" stroke="#E3E1DD"/>
<text x="16" y="64" class="t22 b8 tx">Notifications</text>
<text x="304" y="62" class="t12 sb pri" text-anchor="end">Mark all read</text>

<!-- unread 1 -->
<rect x="14" y="94" width="292" height="58" rx="10" fill="#fff" stroke="#0A66C2" stroke-width="1.5"/>
<circle cx="42" cy="123" r="18" fill="#0A66C2"/>
<text x="42" y="129" class="t13 b" fill="#fff" text-anchor="middle">AK</text>
<text x="70" y="120" class="t13 tx"><tspan class="b">Arun Kumar</tspan> liked your post</text>
<text x="70" y="136" class="t10 mu">12m</text>
<circle cx="290" cy="123" r="4.5" fill="#0A66C2"/>

<!-- unread 2 -->
<rect x="14" y="162" width="292" height="58" rx="10" fill="#fff" stroke="#0A66C2" stroke-width="1.5"/>
<circle cx="42" cy="191" r="18" fill="#0A66C2"/>
<text x="42" y="197" class="t13 b" fill="#fff" text-anchor="middle">RM</text>
<text x="70" y="188" class="t13 tx"><tspan class="b">Ravi Menon</tspan> wants to connect</text>
<text x="70" y="204" class="t10 mu">1h</text>
<circle cx="290" cy="191" r="4.5" fill="#0A66C2"/>

<!-- read 3 -->
<rect x="14" y="230" width="292" height="58" rx="10" fill="#fff" stroke="#E3E1DD"/>
<circle cx="42" cy="259" r="18" fill="#0A66C2"/>
<text x="42" y="265" class="t13 b" fill="#fff" text-anchor="middle">PS</text>
<text x="70" y="256" class="t13 tx"><tspan class="b">Priya Sharma</tspan> commented on your post</text>
<text x="70" y="272" class="t10 mu">3h</text>

<!-- read 4 -->
<rect x="14" y="298" width="292" height="58" rx="10" fill="#fff" stroke="#E3E1DD"/>
<circle cx="42" cy="327" r="18" fill="#0A66C2"/>
<text x="42" y="333" class="t13 b" fill="#fff" text-anchor="middle">SN</text>
<text x="70" y="324" class="t13 tx"><tspan class="b">Sneha Nair</tspan> accepted your</text>
<text x="70" y="340" class="t13 tx">connection request</text>

<!-- read 5 -->
<rect x="14" y="366" width="292" height="58" rx="10" fill="#fff" stroke="#E3E1DD"/>
<circle cx="42" cy="395" r="18" fill="#0A66C2"/>
<text x="42" y="401" class="t13 b" fill="#fff" text-anchor="middle">VG</text>
<text x="70" y="392" class="t13 tx"><tspan class="b">Vikram Gupta</tspan> liked your post</text>
<text x="70" y="408" class="t10 mu">2d</text>

<!-- tab bar -->
<path d="M1 604 h318 v34 a22 22 0 0 1 -22 22 h-274 a22 22 0 0 1 -22 -22 z" fill="#fff"/>
<line x1="1" y1="604" x2="319" y2="604" stroke="#E3E1DD"/>
<text x="52" y="628" class="t15" text-anchor="middle">🏠</text>
<text x="52" y="646" class="t9 mu" text-anchor="middle">Home</text>
<text x="124" y="628" class="t15" text-anchor="middle">👥</text>
<text x="124" y="646" class="t9 mu" text-anchor="middle">Network</text>
<text x="196" y="628" class="t15" text-anchor="middle">🔔</text>
<text x="196" y="646" class="t9 pri sb" text-anchor="middle">Alerts</text>
<text x="268" y="628" class="t15" text-anchor="middle">👤</text>
<text x="268" y="646" class="t9 mu" text-anchor="middle">Profile</text>
</svg>
